<svg width="974" height="395" viewBox="0 0 974 395" fill="none" xmlns="http://www.w3.org/2000/svg">
<rect x="410.707" y="317.299" width="108.317" height="108.317" transform="rotate(-45 410.707 317.299)" fill="#C1A57B" stroke="#ECECEC"/>
<rect x="331.707" y="199.96" width="219.437" height="219.437" transform="rotate(-45 331.707 199.96)" fill="#C1A57B" stroke="#ECECEC"/>
<rect x="331.707" y="155.873" width="219.437" height="219.437" transform="rotate(-45 331.707 155.873)" fill="#C1A57B" stroke="#ECECEC"/>
<g filter="url(#filter0_d)">
<path d="M417.234 142H411.138V141.328H411.906C412.258 141.328 412.522 141.272 412.698 141.16C412.874 141.032 412.978 140.904 413.01 140.776C413.042 140.648 413.058 140.464 413.058 140.224V133.792H403.746V140.224C403.746 140.576 403.818 140.848 403.962 141.04C404.106 141.232 404.418 141.328 404.898 141.328H405.81V142H399.714V141.328H400.53C401.01 141.328 401.322 141.232 401.466 141.04C401.61 140.848 401.682 140.576 401.682 140.224V126.976C401.682 126.624 401.61 126.352 401.466 126.16C401.322 125.968 401.01 125.872 400.53 125.872H399.714V125.2H405.81V125.872H404.898C404.418 125.872 404.106 125.968 403.962 126.16C403.818 126.352 403.746 126.624 403.746 126.976V132.736H413.058V126.976C413.058 126.736 413.042 126.552 413.01 126.424C412.978 126.296 412.874 126.176 412.698 126.064C412.522 125.936 412.258 125.872 411.906 125.872H411.138V125.2H417.234V125.872H416.322C415.97 125.872 415.706 125.936 415.53 126.064C415.354 126.176 415.25 126.296 415.218 126.424C415.186 126.552 415.17 126.736 415.17 126.976V140.224C415.17 140.464 415.186 140.648 415.218 140.776C415.25 140.904 415.354 141.032 415.53 141.16C415.706 141.272 415.97 141.328 416.322 141.328H417.234V142ZM429.608 142H426.152V140.08C425.352 140.944 424.688 141.536 424.16 141.856C423.632 142.176 422.912 142.336 422 142.336C421.104 142.336 420.4 142.128 419.888 141.712C419.392 141.28 419.144 140.68 419.144 139.912C419.144 139.144 419.472 138.4 420.128 137.68C420.8 136.944 421.576 136.392 422.456 136.024C423.352 135.64 424.136 135.352 424.808 135.16C425.48 134.952 425.928 134.848 426.152 134.848V134.32C426.152 132.816 425.528 132.064 424.28 132.064C423.416 132.064 422.608 132.248 421.856 132.616C421.12 132.984 420.568 133.456 420.2 134.032L419.72 133.6C420.792 131.52 422.648 130.48 425.288 130.48C425.96 130.48 426.512 130.664 426.944 131.032C427.392 131.384 427.688 131.8 427.832 132.28C427.992 132.76 428.072 133.296 428.072 133.888V140.368C428.072 140.576 428.088 140.736 428.12 140.848C428.152 140.96 428.248 141.072 428.408 141.184C428.584 141.28 428.84 141.328 429.176 141.328H429.608V142ZM426.152 138.736V135.808C424.904 136.048 423.744 136.528 422.672 137.248C421.6 137.968 421.064 138.752 421.064 139.6C421.064 139.936 421.224 140.232 421.544 140.488C421.88 140.728 422.288 140.848 422.768 140.848C423.264 140.848 423.848 140.632 424.52 140.2C425.192 139.752 425.736 139.264 426.152 138.736ZM442.562 142H439.106V139.216C438.77 140.128 438.226 140.88 437.474 141.472C436.722 142.048 435.786 142.336 434.666 142.336C433.562 142.336 432.69 141.976 432.05 141.256C431.41 140.536 431.09 139.568 431.09 138.352C431.09 136.096 431.674 134.224 432.842 132.736C434.026 131.232 435.474 130.48 437.186 130.48C437.57 130.48 438.21 130.64 439.106 130.96V126.16C439.106 125.856 439.002 125.64 438.794 125.512C438.586 125.368 438.226 125.296 437.714 125.296V124.624C438.05 124.624 438.546 124.536 439.202 124.36C439.858 124.184 440.322 124 440.594 123.808L441.026 123.712V140.368C441.026 140.672 441.082 140.896 441.194 141.04C441.322 141.168 441.618 141.232 442.082 141.232H442.562V142ZM439.106 137.248V132.976C439.042 132.88 438.946 132.752 438.818 132.592C438.69 132.432 438.418 132.224 438.002 131.968C437.602 131.712 437.186 131.584 436.754 131.584C435.586 131.584 434.61 132.136 433.826 133.24C433.058 134.344 432.674 135.744 432.674 137.44C432.674 138.384 432.954 139.168 433.514 139.792C434.09 140.4 434.818 140.704 435.698 140.704C436.594 140.704 437.386 140.224 438.074 139.264C438.762 138.288 439.106 137.616 439.106 137.248ZM449.76 142H444.576V141.328H444.96C445.392 141.328 445.664 141.256 445.776 141.112C445.904 140.968 445.968 140.736 445.968 140.416V133.216C445.968 132.912 445.864 132.696 445.656 132.568C445.464 132.424 445.104 132.352 444.576 132.352V131.68C444.896 131.68 445.376 131.568 446.016 131.344C446.672 131.104 447.168 130.88 447.504 130.672L447.936 130.576V133.552C448.512 132.288 449.168 131.456 449.904 131.056C450.64 130.64 451.728 130.432 453.168 130.432L453.024 133.216H452.304C452.304 132.992 452.216 132.776 452.04 132.568C451.88 132.36 451.616 132.256 451.248 132.256C450.448 132.256 449.696 132.688 448.992 133.552C448.288 134.416 447.936 135.248 447.936 136.048V140.272C447.936 140.528 447.944 140.712 447.96 140.824C447.992 140.936 448.088 141.048 448.248 141.16C448.408 141.272 448.656 141.328 448.992 141.328H449.76V142ZM456.44 125.296C456.808 125.296 457.088 125.416 457.28 125.656C457.488 125.896 457.592 126.208 457.592 126.592C457.592 126.96 457.44 127.272 457.136 127.528C456.832 127.768 456.496 127.888 456.128 127.888C455.776 127.888 455.496 127.768 455.288 127.528C455.096 127.288 455 126.992 455 126.64C455 126.272 455.152 125.96 455.456 125.704C455.76 125.432 456.088 125.296 456.44 125.296ZM459.08 142H454.232V141.328H454.616C455.048 141.328 455.32 141.256 455.432 141.112C455.56 140.968 455.624 140.736 455.624 140.416V133.216C455.624 132.912 455.52 132.696 455.312 132.568C455.12 132.424 454.76 132.352 454.232 132.352V131.68C454.552 131.68 455.032 131.568 455.672 131.344C456.328 131.104 456.824 130.88 457.16 130.672L457.592 130.576V140.272C457.592 140.528 457.6 140.712 457.616 140.824C457.648 140.936 457.744 141.048 457.904 141.16C458.064 141.272 458.312 141.328 458.648 141.328H459.08V142ZM470.173 139.072L470.605 139.504C469.581 141.392 467.741 142.336 465.085 142.336C463.853 142.336 462.797 141.792 461.917 140.704C461.053 139.616 460.621 138.4 460.621 137.056C460.621 135.248 461.205 133.704 462.373 132.424C463.557 131.128 464.989 130.48 466.669 130.48C467.469 130.48 468.173 130.712 468.781 131.176C469.869 132.024 470.413 133.12 470.413 134.464C470.413 134.656 470.373 134.888 470.293 135.16C470.229 135.432 470.173 135.568 470.125 135.568L462.397 135.808C462.397 137.056 462.789 138.208 463.573 139.264C464.357 140.32 465.309 140.848 466.429 140.848C467.229 140.848 467.965 140.688 468.637 140.368C469.325 140.032 469.837 139.6 470.173 139.072ZM462.637 134.848L468.253 134.608C468.285 134.608 468.301 134.464 468.301 134.176C468.301 133.344 468.053 132.752 467.557 132.4C467.077 132.048 466.405 131.872 465.541 131.872C464.693 131.872 463.997 132.136 463.453 132.664C462.909 133.192 462.637 133.92 462.637 134.848ZM484.727 142H480.599V141.328H480.695C480.871 141.328 481.015 141.24 481.127 141.064C481.255 140.888 481.319 140.672 481.319 140.416V134.32C481.319 133.6 481.143 133.056 480.791 132.688C480.455 132.304 479.975 132.112 479.351 132.112C478.455 132.112 477.663 132.592 476.975 133.552C476.287 134.512 475.943 135.232 475.943 135.712V140.272C475.943 140.528 475.951 140.712 475.967 140.824C475.999 140.936 476.095 141.048 476.255 141.16C476.415 141.272 476.663 141.328 476.999 141.328H477.431V142H472.583V141.328H472.967C473.399 141.328 473.671 141.256 473.783 141.112C473.911 140.968 473.975 140.736 473.975 140.416V133.216C473.975 132.912 473.871 132.696 473.663 132.568C473.471 132.424 473.111 132.352 472.583 132.352V131.68C472.903 131.68 473.383 131.568 474.023 131.344C474.679 131.104 475.175 130.88 475.511 130.672L475.943 130.576V133.648C476.311 132.64 476.879 131.864 477.647 131.32C478.415 130.76 479.351 130.48 480.455 130.48C481.031 130.48 481.519 130.608 481.919 130.864C482.319 131.12 482.607 131.448 482.783 131.848C483.087 132.536 483.239 133.216 483.239 133.888V140.368C483.239 140.592 483.255 140.76 483.287 140.872C483.367 141.176 483.703 141.328 484.295 141.328H484.727V142ZM496.582 126.784V139.84C497.51 140.384 498.774 140.656 500.374 140.656C502.278 140.656 503.958 140.136 505.414 139.096C506.15 138.568 506.734 137.832 507.166 136.888C507.598 135.944 507.814 134.88 507.814 133.696C507.814 132.496 507.574 131.432 507.094 130.504C506.63 129.576 506.022 128.832 505.27 128.272C503.75 127.12 502.182 126.544 500.566 126.544L496.582 126.784ZM496.246 125.2L502.198 124.96C504.422 124.96 506.174 125.68 507.454 127.12C508.75 128.56 509.398 130.488 509.398 132.904C509.398 135.304 508.47 137.424 506.614 139.264C504.774 141.088 502.614 142 500.134 142H492.55V141.28H493.366C493.846 141.28 494.158 141.192 494.302 141.016C494.446 140.84 494.518 140.576 494.518 140.224V126.976C494.518 126.608 494.438 126.344 494.278 126.184C494.134 126.008 493.83 125.92 493.366 125.92H492.55V125.2H496.246ZM520.494 139.072L520.926 139.504C519.902 141.392 518.062 142.336 515.406 142.336C514.174 142.336 513.118 141.792 512.238 140.704C511.374 139.616 510.942 138.4 510.942 137.056C510.942 135.248 511.526 133.704 512.694 132.424C513.878 131.128 515.31 130.48 516.99 130.48C517.79 130.48 518.494 130.712 519.102 131.176C520.19 132.024 520.734 133.12 520.734 134.464C520.734 134.656 520.694 134.888 520.614 135.16C520.55 135.432 520.494 135.568 520.446 135.568L512.718 135.808C512.718 137.056 513.11 138.208 513.894 139.264C514.678 140.32 515.63 140.848 516.75 140.848C517.55 140.848 518.286 140.688 518.958 140.368C519.646 140.032 520.158 139.6 520.494 139.072ZM512.958 134.848L518.574 134.608C518.606 134.608 518.622 134.464 518.622 134.176C518.622 133.344 518.374 132.752 517.878 132.4C517.398 132.048 516.726 131.872 515.862 131.872C515.014 131.872 514.318 132.136 513.774 132.664C513.23 133.192 512.958 133.92 512.958 134.848ZM527.56 142H522.76V141.328H523.096C523.448 141.328 523.704 141.256 523.864 141.112C524.024 140.952 524.104 140.688 524.104 140.32V126.16C524.104 125.856 524 125.64 523.792 125.512C523.584 125.368 523.224 125.296 522.712 125.296V124.624C523.032 124.624 523.52 124.536 524.176 124.36C524.848 124.184 525.336 124 525.64 123.808L526.072 123.712V140.272C526.072 140.528 526.08 140.712 526.096 140.824C526.128 140.936 526.224 141.048 526.384 141.16C526.544 141.272 526.792 141.328 527.128 141.328H527.56V142ZM534.335 147.616H529.487V146.896H529.775C530.127 146.896 530.383 146.84 530.543 146.728C530.719 146.616 530.815 146.504 530.831 146.392C530.863 146.28 530.879 146.096 530.879 145.84V133.408C530.879 132.672 530.415 132.304 529.487 132.304V131.68C529.791 131.68 530.271 131.56 530.927 131.32C531.583 131.064 532.063 130.832 532.367 130.624L532.799 130.576V133.6C533.135 132.688 533.679 131.944 534.431 131.368C535.183 130.776 536.111 130.48 537.215 130.48C538.319 130.48 539.191 130.84 539.831 131.56C540.487 132.28 540.815 133.248 540.815 134.464C540.815 136.72 540.223 138.6 539.039 140.104C537.855 141.592 536.415 142.336 534.719 142.336C534.127 142.336 533.487 142.176 532.799 141.856V145.936C532.799 146.16 532.815 146.328 532.847 146.44C532.927 146.744 533.263 146.896 533.855 146.896H534.335V147.616ZM532.799 135.568V139.84C532.863 139.936 532.959 140.064 533.087 140.224C533.215 140.384 533.479 140.592 533.879 140.848C534.295 141.104 534.719 141.232 535.151 141.232C536.319 141.232 537.287 140.68 538.055 139.576C538.839 138.472 539.231 137.072 539.231 135.376C539.231 134.432 538.935 133.656 538.343 133.048C537.767 132.424 537.039 132.112 536.159 132.112C535.295 132.112 534.519 132.6 533.831 133.576C533.143 134.536 532.799 135.2 532.799 135.568ZM554.639 142H550.463V141.328H550.607C550.767 141.328 550.903 141.248 551.015 141.088C551.127 140.912 551.183 140.688 551.183 140.416V134.32C551.183 132.848 550.543 132.112 549.263 132.112C548.351 132.112 547.543 132.592 546.839 133.552C546.151 134.512 545.807 135.232 545.807 135.712V140.272C545.807 140.512 545.823 140.696 545.855 140.824C545.935 141.16 546.271 141.328 546.863 141.328H547.343V142H542.495V141.328H542.831C543.263 141.328 543.543 141.256 543.671 141.112C543.815 140.952 543.887 140.72 543.887 140.416V126.16C543.887 125.856 543.783 125.64 543.575 125.512C543.367 125.368 543.007 125.296 542.495 125.296V124.624C542.831 124.624 543.327 124.536 543.983 124.36C544.639 124.184 545.103 124 545.375 123.808L545.807 123.712V133.648C546.639 131.536 548.143 130.48 550.319 130.48C550.895 130.48 551.383 130.608 551.783 130.864C552.199 131.12 552.495 131.448 552.671 131.848C552.991 132.52 553.151 133.2 553.151 133.888V140.368C553.151 140.592 553.167 140.76 553.199 140.872C553.263 141.176 553.583 141.328 554.159 141.328H554.639V142ZM558.674 125.296C559.042 125.296 559.322 125.416 559.514 125.656C559.722 125.896 559.826 126.208 559.826 126.592C559.826 126.96 559.674 127.272 559.37 127.528C559.066 127.768 558.73 127.888 558.362 127.888C558.01 127.888 557.73 127.768 557.522 127.528C557.33 127.288 557.234 126.992 557.234 126.64C557.234 126.272 557.386 125.96 557.69 125.704C557.994 125.432 558.322 125.296 558.674 125.296ZM561.314 142H556.466V141.328H556.85C557.282 141.328 557.554 141.256 557.666 141.112C557.794 140.968 557.858 140.736 557.858 140.416V133.216C557.858 132.912 557.754 132.696 557.546 132.568C557.354 132.424 556.994 132.352 556.466 132.352V131.68C556.786 131.68 557.266 131.568 557.906 131.344C558.562 131.104 559.058 130.88 559.394 130.672L559.826 130.576V140.272C559.826 140.528 559.834 140.712 559.85 140.824C559.882 140.936 559.978 141.048 560.138 141.16C560.298 141.272 560.546 141.328 560.882 141.328H561.314V142ZM575.384 142H571.256V141.328H571.352C571.528 141.328 571.672 141.24 571.784 141.064C571.912 140.888 571.976 140.672 571.976 140.416V134.32C571.976 133.6 571.8 133.056 571.448 132.688C571.112 132.304 570.632 132.112 570.008 132.112C569.112 132.112 568.32 132.592 567.632 133.552C566.944 134.512 566.6 135.232 566.6 135.712V140.272C566.6 140.528 566.608 140.712 566.624 140.824C566.656 140.936 566.752 141.048 566.912 141.16C567.072 141.272 567.32 141.328 567.656 141.328H568.088V142H563.24V141.328H563.624C564.056 141.328 564.328 141.256 564.44 141.112C564.568 140.968 564.632 140.736 564.632 140.416V133.216C564.632 132.912 564.528 132.696 564.32 132.568C564.128 132.424 563.768 132.352 563.24 132.352V131.68C563.56 131.68 564.04 131.568 564.68 131.344C565.336 131.104 565.832 130.88 566.168 130.672L566.6 130.576V133.648C566.968 132.64 567.536 131.864 568.304 131.32C569.072 130.76 570.008 130.48 571.112 130.48C571.688 130.48 572.176 130.608 572.576 130.864C572.976 131.12 573.264 131.448 573.44 131.848C573.744 132.536 573.896 133.216 573.896 133.888V140.368C573.896 140.592 573.912 140.76 573.944 140.872C574.024 141.176 574.36 141.328 574.952 141.328H575.384V142ZM402.023 186.784V199.84C402.951 200.384 404.215 200.656 405.815 200.656C407.719 200.656 409.399 200.136 410.855 199.096C411.591 198.568 412.175 197.832 412.607 196.888C413.039 195.944 413.255 194.88 413.255 193.696C413.255 192.496 413.015 191.432 412.535 190.504C412.071 189.576 411.463 188.832 410.711 188.272C409.191 187.12 407.623 186.544 406.007 186.544L402.023 186.784ZM401.687 185.2L407.639 184.96C409.863 184.96 411.615 185.68 412.895 187.12C414.191 188.56 414.839 190.488 414.839 192.904C414.839 195.304 413.911 197.424 412.055 199.264C410.215 201.088 408.055 202 405.575 202H397.991V201.28H398.807C399.287 201.28 399.599 201.192 399.743 201.016C399.887 200.84 399.959 200.576 399.959 200.224V186.976C399.959 186.608 399.879 186.344 399.719 186.184C399.575 186.008 399.271 185.92 398.807 185.92H397.991V185.2H401.687ZM423.583 186.16L419.983 189.232L419.407 188.848L421.999 185.152L423.583 186.16ZM425.935 199.072L426.367 199.504C425.343 201.392 423.503 202.336 420.847 202.336C419.615 202.336 418.559 201.792 417.679 200.704C416.815 199.616 416.383 198.4 416.383 197.056C416.383 195.248 416.967 193.704 418.135 192.424C419.319 191.128 420.751 190.48 422.431 190.48C423.231 190.48 423.935 190.712 424.543 191.176C425.631 192.024 426.175 193.12 426.175 194.464C426.175 194.656 426.135 194.888 426.055 195.16C425.991 195.432 425.935 195.568 425.887 195.568L418.399 195.808C418.399 197.072 418.751 198.232 419.455 199.288C420.159 200.328 421.071 200.848 422.191 200.848C422.991 200.848 423.727 200.688 424.399 200.368C425.087 200.032 425.599 199.6 425.935 199.072ZM418.399 194.848L424.015 194.608C424.047 194.608 424.063 194.464 424.063 194.176C424.063 193.344 423.815 192.752 423.319 192.4C422.839 192.048 422.167 191.872 421.303 191.872C420.455 191.872 419.759 192.136 419.215 192.664C418.671 193.192 418.399 193.92 418.399 194.848ZM432.382 202.336L428.734 192.592C428.59 192.224 428.43 191.96 428.254 191.8C428.094 191.624 427.838 191.536 427.486 191.536H427.15V190.816H431.614L431.566 191.536H431.326C430.846 191.536 430.606 191.68 430.606 191.968C430.606 192.16 430.622 192.288 430.654 192.352L433.342 199.408L436.078 192.496C436.206 192.24 436.27 192.04 436.27 191.896C436.27 191.752 436.182 191.656 436.006 191.608C435.846 191.56 435.47 191.536 434.878 191.536H434.59V190.816H439.102V191.536H438.91C438.398 191.536 438.03 191.616 437.806 191.776C437.598 191.936 437.406 192.24 437.23 192.688L434.062 200.8C433.934 200.8 433.686 201.016 433.318 201.448C432.95 201.864 432.766 202.128 432.766 202.24L432.382 202.336ZM449.021 199.072L449.453 199.504C448.429 201.392 446.589 202.336 443.933 202.336C442.701 202.336 441.645 201.792 440.765 200.704C439.901 199.616 439.469 198.4 439.469 197.056C439.469 195.248 440.053 193.704 441.221 192.424C442.405 191.128 443.837 190.48 445.517 190.48C446.317 190.48 447.021 190.712 447.629 191.176C448.717 192.024 449.261 193.12 449.261 194.464C449.261 194.656 449.221 194.888 449.141 195.16C449.077 195.432 449.021 195.568 448.973 195.568L441.245 195.808C441.245 197.056 441.637 198.208 442.421 199.264C443.205 200.32 444.157 200.848 445.277 200.848C446.077 200.848 446.813 200.688 447.485 200.368C448.173 200.032 448.685 199.6 449.021 199.072ZM441.485 194.848L447.101 194.608C447.133 194.608 447.149 194.464 447.149 194.176C447.149 193.344 446.901 192.752 446.405 192.4C445.925 192.048 445.253 191.872 444.389 191.872C443.541 191.872 442.845 192.136 442.301 192.664C441.757 193.192 441.485 193.92 441.485 194.848ZM456.087 202H451.287V201.328H451.623C451.975 201.328 452.231 201.256 452.391 201.112C452.551 200.952 452.631 200.688 452.631 200.32V186.16C452.631 185.856 452.527 185.64 452.319 185.512C452.111 185.368 451.751 185.296 451.239 185.296V184.624C451.559 184.624 452.047 184.536 452.703 184.36C453.375 184.184 453.863 184 454.167 183.808L454.599 183.712V200.272C454.599 200.528 454.607 200.712 454.623 200.824C454.655 200.936 454.751 201.048 454.911 201.16C455.071 201.272 455.319 201.328 455.655 201.328H456.087V202ZM462.671 202.336C461.263 202.336 460.087 201.808 459.143 200.752C458.199 199.696 457.727 198.464 457.727 197.056C457.727 195.264 458.399 193.72 459.743 192.424C461.103 191.128 462.535 190.48 464.039 190.48C465.543 190.48 466.751 191.016 467.663 192.088C468.591 193.144 469.055 194.368 469.055 195.76C469.055 197.504 468.407 199.04 467.111 200.368C465.831 201.68 464.351 202.336 462.671 202.336ZM459.407 195.76C459.407 197.248 459.855 198.488 460.751 199.48C461.663 200.456 462.679 200.944 463.799 200.944C464.935 200.944 465.823 200.52 466.463 199.672C467.103 198.824 467.423 197.952 467.423 197.056C467.423 195.696 466.999 194.512 466.151 193.504C465.319 192.48 464.303 191.968 463.103 191.968C461.903 191.968 460.983 192.376 460.343 193.192C459.719 193.992 459.407 194.848 459.407 195.76ZM475.542 207.616H470.694V206.896H470.982C471.334 206.896 471.59 206.84 471.75 206.728C471.926 206.616 472.022 206.504 472.038 206.392C472.07 206.28 472.086 206.096 472.086 205.84V193.408C472.086 192.672 471.622 192.304 470.694 192.304V191.68C470.998 191.68 471.478 191.56 472.134 191.32C472.79 191.064 473.27 190.832 473.574 190.624L474.006 190.576V193.6C474.342 192.688 474.886 191.944 475.638 191.368C476.39 190.776 477.318 190.48 478.422 190.48C479.526 190.48 480.398 190.84 481.038 191.56C481.694 192.28 482.022 193.248 482.022 194.464C482.022 196.72 481.43 198.6 480.246 200.104C479.062 201.592 477.622 202.336 475.926 202.336C475.334 202.336 474.694 202.176 474.006 201.856V205.936C474.006 206.16 474.022 206.328 474.054 206.44C474.134 206.744 474.47 206.896 475.062 206.896H475.542V207.616ZM474.006 195.568V199.84C474.07 199.936 474.166 200.064 474.294 200.224C474.422 200.384 474.686 200.592 475.086 200.848C475.502 201.104 475.926 201.232 476.358 201.232C477.526 201.232 478.494 200.68 479.262 199.576C480.046 198.472 480.438 197.072 480.438 195.376C480.438 194.432 480.142 193.656 479.55 193.048C478.974 192.424 478.246 192.112 477.366 192.112C476.502 192.112 475.726 192.6 475.038 193.576C474.35 194.536 474.006 195.2 474.006 195.568ZM488.55 207.616H483.702V206.896H483.99C484.342 206.896 484.598 206.84 484.758 206.728C484.934 206.616 485.03 206.504 485.046 206.392C485.078 206.28 485.094 206.096 485.094 205.84V193.408C485.094 192.672 484.63 192.304 483.702 192.304V191.68C484.006 191.68 484.486 191.56 485.142 191.32C485.798 191.064 486.278 190.832 486.582 190.624L487.014 190.576V193.6C487.35 192.688 487.894 191.944 488.646 191.368C489.398 190.776 490.326 190.48 491.43 190.48C492.534 190.48 493.406 190.84 494.046 191.56C494.702 192.28 495.03 193.248 495.03 194.464C495.03 196.72 494.438 198.6 493.254 200.104C492.07 201.592 490.63 202.336 488.934 202.336C488.342 202.336 487.702 202.176 487.014 201.856V205.936C487.014 206.16 487.03 206.328 487.062 206.44C487.142 206.744 487.478 206.896 488.07 206.896H488.55V207.616ZM487.014 195.568V199.84C487.078 199.936 487.174 200.064 487.302 200.224C487.43 200.384 487.694 200.592 488.094 200.848C488.51 201.104 488.934 201.232 489.366 201.232C490.534 201.232 491.502 200.68 492.27 199.576C493.054 198.472 493.446 197.072 493.446 195.376C493.446 194.432 493.15 193.656 492.558 193.048C491.982 192.424 491.254 192.112 490.374 192.112C489.51 192.112 488.734 192.6 488.046 193.576C487.358 194.536 487.014 195.2 487.014 195.568ZM505.974 199.072L506.406 199.504C505.382 201.392 503.542 202.336 500.886 202.336C499.654 202.336 498.598 201.792 497.718 200.704C496.854 199.616 496.422 198.4 496.422 197.056C496.422 195.248 497.006 193.704 498.174 192.424C499.358 191.128 500.79 190.48 502.47 190.48C503.27 190.48 503.974 190.712 504.582 191.176C505.67 192.024 506.214 193.12 506.214 194.464C506.214 194.656 506.174 194.888 506.094 195.16C506.03 195.432 505.974 195.568 505.926 195.568L498.198 195.808C498.198 197.056 498.59 198.208 499.374 199.264C500.158 200.32 501.11 200.848 502.23 200.848C503.03 200.848 503.766 200.688 504.438 200.368C505.126 200.032 505.638 199.6 505.974 199.072ZM498.438 194.848L504.054 194.608C504.086 194.608 504.102 194.464 504.102 194.176C504.102 193.344 503.854 192.752 503.358 192.4C502.878 192.048 502.206 191.872 501.342 191.872C500.494 191.872 499.798 192.136 499.254 192.664C498.71 193.192 498.438 193.92 498.438 194.848ZM520.192 202H516.736V199.168C516.368 200.176 515.8 200.96 515.032 201.52C514.264 202.064 513.328 202.336 512.224 202.336C511.648 202.336 511.16 202.208 510.76 201.952C510.36 201.696 510.072 201.368 509.896 200.968C509.592 200.28 509.44 199.6 509.44 198.928V193.216C509.44 192.48 508.976 192.112 508.048 192.112V191.44C508.368 191.44 508.848 191.352 509.488 191.176C510.144 191 510.624 190.816 510.928 190.624L511.36 190.576V198.496C511.36 199.216 511.528 199.768 511.864 200.152C512.216 200.52 512.704 200.704 513.328 200.704C514.224 200.704 515.016 200.224 515.704 199.264C516.392 198.304 516.736 197.584 516.736 197.104V193.216C516.736 192.48 516.272 192.112 515.344 192.112V191.44C515.696 191.44 516.192 191.352 516.832 191.176C517.488 191 517.968 190.816 518.272 190.624L518.704 190.576V200.368C518.704 200.592 518.72 200.76 518.752 200.872C518.832 201.176 519.168 201.328 519.76 201.328H520.192V202ZM527.256 202H522.072V201.328H522.456C522.888 201.328 523.16 201.256 523.272 201.112C523.4 200.968 523.464 200.736 523.464 200.416V193.216C523.464 192.912 523.36 192.696 523.152 192.568C522.96 192.424 522.6 192.352 522.072 192.352V191.68C522.392 191.68 522.872 191.568 523.512 191.344C524.168 191.104 524.664 190.88 525 190.672L525.432 190.576V193.552C526.008 192.288 526.664 191.456 527.4 191.056C528.136 190.64 529.224 190.432 530.664 190.432L530.52 193.216H529.8C529.8 192.992 529.712 192.776 529.536 192.568C529.376 192.36 529.112 192.256 528.744 192.256C527.944 192.256 527.192 192.688 526.488 193.552C525.784 194.416 525.432 195.248 525.432 196.048V200.272C525.432 200.528 525.44 200.712 525.456 200.824C525.488 200.936 525.584 201.048 525.744 201.16C525.904 201.272 526.152 201.328 526.488 201.328H527.256V202ZM548.096 202.24L547.664 202.336L545.264 195.328L543.392 200.8C543.232 200.848 542.984 201.08 542.648 201.496C542.312 201.912 542.144 202.16 542.144 202.24L541.712 202.336L538.304 192.592C538.16 192.224 538 191.96 537.824 191.8C537.664 191.624 537.408 191.536 537.056 191.536H536.72V190.816H541.232L541.184 191.536C540.544 191.536 540.224 191.728 540.224 192.112C540.224 192.24 540.288 192.496 540.416 192.88L542.72 199.408L544.688 193.696L544.256 192.592C543.984 191.888 543.632 191.536 543.2 191.536V190.816H547.472V191.536H547.28C546.576 191.536 546.224 191.728 546.224 192.112C546.224 192.176 546.272 192.352 546.368 192.64L548.672 199.408L551.024 192.544C551.152 192.24 551.216 192.024 551.216 191.896C551.216 191.752 551.128 191.656 550.952 191.608C550.792 191.56 550.416 191.536 549.824 191.536H549.536V190.816H554.048V191.536H553.808C553.28 191.536 552.912 191.616 552.704 191.776C552.496 191.936 552.32 192.24 552.176 192.688L549.392 200.8C549.248 200.8 548.992 201.024 548.624 201.472C548.272 201.904 548.096 202.16 548.096 202.24ZM563.958 199.072L564.39 199.504C563.366 201.392 561.526 202.336 558.87 202.336C557.638 202.336 556.582 201.792 555.702 200.704C554.838 199.616 554.406 198.4 554.406 197.056C554.406 195.248 554.99 193.704 556.158 192.424C557.342 191.128 558.774 190.48 560.454 190.48C561.254 190.48 561.958 190.712 562.566 191.176C563.654 192.024 564.198 193.12 564.198 194.464C564.198 194.656 564.158 194.888 564.078 195.16C564.014 195.432 563.958 195.568 563.91 195.568L556.182 195.808C556.182 197.056 556.574 198.208 557.358 199.264C558.142 200.32 559.094 200.848 560.214 200.848C561.014 200.848 561.75 200.688 562.422 200.368C563.11 200.032 563.622 199.6 563.958 199.072ZM556.422 194.848L562.038 194.608C562.07 194.608 562.086 194.464 562.086 194.176C562.086 193.344 561.838 192.752 561.342 192.4C560.862 192.048 560.19 191.872 559.326 191.872C558.478 191.872 557.782 192.136 557.238 192.664C556.694 193.192 556.422 193.92 556.422 194.848ZM567.307 200.848V186.16C567.307 185.856 567.203 185.64 566.995 185.512C566.803 185.368 566.443 185.296 565.915 185.296V184.624C566.267 184.624 566.763 184.536 567.403 184.36C568.059 184.184 568.539 184 568.843 183.808L569.275 183.712V193.648C569.595 192.72 570.131 191.96 570.883 191.368C571.635 190.776 572.563 190.48 573.667 190.48C574.787 190.48 575.667 190.848 576.307 191.584C576.963 192.304 577.291 193.28 577.291 194.512C577.291 196.768 576.699 198.64 575.515 200.128C574.331 201.6 572.875 202.336 571.147 202.336C570.539 202.336 569.835 202.152 569.035 201.784C568.251 201.416 567.675 201.104 567.307 200.848ZM569.275 195.568V199.84C569.419 200.128 569.643 200.392 569.947 200.632C570.523 201.064 571.067 201.28 571.579 201.28C572.731 201.28 573.699 200.728 574.483 199.624C575.267 198.504 575.659 197.104 575.659 195.424C575.659 194.464 575.371 193.672 574.795 193.048C574.235 192.424 573.515 192.112 572.635 192.112C571.771 192.112 570.995 192.6 570.307 193.576C569.619 194.536 569.275 195.2 569.275 195.568ZM438.587 232H432.491V231.328H433.259C433.611 231.328 433.875 231.272 434.051 231.16C434.227 231.032 434.331 230.904 434.363 230.776C434.395 230.648 434.411 230.464 434.411 230.224V216.976C434.411 216.576 434.331 216.296 434.171 216.136C434.011 215.96 433.707 215.872 433.259 215.872H432.491V215.2H445.307L445.547 218.608L444.875 218.704C444.843 218.112 444.595 217.552 444.131 217.024C443.667 216.48 443.019 216.208 442.187 216.208H437.675C437.323 216.208 437.059 216.264 436.883 216.376C436.707 216.488 436.603 216.608 436.571 216.736C436.539 216.864 436.523 217.04 436.523 217.264V222.592H441.179C441.419 222.592 441.603 222.576 441.731 222.544C442.067 222.464 442.235 222.16 442.235 221.632V220.48H442.955V225.616H442.235V224.56C442.235 224.144 442.147 223.88 441.971 223.768C441.795 223.656 441.531 223.6 441.179 223.6H436.523V230.224C436.523 230.464 436.539 230.648 436.571 230.776C436.603 230.904 436.707 231.032 436.883 231.16C437.059 231.272 437.323 231.328 437.675 231.328H438.587V232ZM450.53 232.336C449.122 232.336 447.946 231.808 447.002 230.752C446.058 229.696 445.586 228.464 445.586 227.056C445.586 225.264 446.258 223.72 447.602 222.424C448.962 221.128 450.394 220.48 451.898 220.48C453.402 220.48 454.61 221.016 455.522 222.088C456.45 223.144 456.914 224.368 456.914 225.76C456.914 227.504 456.266 229.04 454.97 230.368C453.69 231.68 452.21 232.336 450.53 232.336ZM447.266 225.76C447.266 227.248 447.714 228.488 448.61 229.48C449.522 230.456 450.538 230.944 451.658 230.944C452.794 230.944 453.682 230.52 454.322 229.672C454.962 228.824 455.282 227.952 455.282 227.056C455.282 225.696 454.858 224.512 454.01 223.504C453.178 222.48 452.162 221.968 450.962 221.968C449.762 221.968 448.842 222.376 448.202 223.192C447.578 223.992 447.266 224.848 447.266 225.76ZM463.834 232H458.65V231.328H459.034C459.466 231.328 459.738 231.256 459.85 231.112C459.978 230.968 460.042 230.736 460.042 230.416V223.216C460.042 222.912 459.938 222.696 459.73 222.568C459.538 222.424 459.178 222.352 458.65 222.352V221.68C458.97 221.68 459.45 221.568 460.09 221.344C460.746 221.104 461.242 220.88 461.578 220.672L462.01 220.576V223.552C462.586 222.288 463.242 221.456 463.978 221.056C464.714 220.64 465.802 220.432 467.242 220.432L467.098 223.216H466.378C466.378 222.992 466.29 222.776 466.114 222.568C465.954 222.36 465.69 222.256 465.322 222.256C464.522 222.256 463.77 222.688 463.066 223.552C462.362 224.416 462.01 225.248 462.01 226.048V230.272C462.01 230.528 462.018 230.712 462.034 230.824C462.066 230.936 462.162 231.048 462.322 231.16C462.482 231.272 462.73 231.328 463.066 231.328H463.834V232ZM487.502 232H483.326V231.328H483.422C483.598 231.328 483.742 231.24 483.854 231.064C483.982 230.888 484.046 230.672 484.046 230.416V224.32C484.046 223.68 483.886 223.152 483.566 222.736C483.262 222.32 482.862 222.112 482.366 222.112C481.886 222.112 481.438 222.224 481.022 222.448C480.622 222.672 480.294 222.944 480.038 223.264C479.798 223.584 479.582 223.92 479.39 224.272C479.07 224.896 478.91 225.36 478.91 225.664V230.368C478.91 231.008 479.262 231.328 479.966 231.328H480.398V232H476.222V231.328H476.366C476.51 231.328 476.638 231.24 476.75 231.064C476.878 230.888 476.942 230.672 476.942 230.416V224.32C476.942 223.68 476.79 223.152 476.486 222.736C476.182 222.32 475.766 222.112 475.238 222.112C474.726 222.112 474.238 222.28 473.773 222.616C473.31 222.952 472.942 223.344 472.67 223.792C472.126 224.704 471.854 225.344 471.854 225.712V230.272C471.854 230.528 471.862 230.712 471.878 230.824C471.91 230.936 472.006 231.048 472.166 231.16C472.326 231.272 472.574 231.328 472.91 231.328H473.342V232H468.494V231.328H468.878C469.31 231.328 469.582 231.256 469.694 231.112C469.822 230.968 469.886 230.736 469.886 230.416V223.216C469.886 222.912 469.782 222.696 469.574 222.568C469.382 222.424 469.022 222.352 468.494 222.352V221.68C468.814 221.68 469.294 221.568 469.934 221.344C470.59 221.104 471.086 220.88 471.422 220.672L471.854 220.576V223.648C472.318 222.56 472.87 221.76 473.51 221.248C474.166 220.736 475.054 220.48 476.174 220.48C476.686 220.48 477.134 220.592 477.518 220.816C477.902 221.024 478.19 221.304 478.382 221.656C478.702 222.28 478.878 222.944 478.91 223.648C479.278 222.576 479.798 221.784 480.47 221.272C481.142 220.744 482.046 220.48 483.182 220.48C483.758 220.48 484.246 220.608 484.646 220.864C485.046 221.12 485.334 221.448 485.51 221.848C485.814 222.536 485.966 223.216 485.966 223.888V230.368C485.966 230.592 485.982 230.76 486.014 230.872C486.094 231.176 486.43 231.328 487.022 231.328H487.502V232ZM499.744 232H496.288V230.08C495.488 230.944 494.824 231.536 494.296 231.856C493.768 232.176 493.048 232.336 492.136 232.336C491.24 232.336 490.536 232.128 490.024 231.712C489.528 231.28 489.28 230.68 489.28 229.912C489.28 229.144 489.608 228.4 490.264 227.68C490.936 226.944 491.712 226.392 492.592 226.024C493.488 225.64 494.272 225.352 494.944 225.16C495.616 224.952 496.064 224.848 496.288 224.848V224.32C496.288 222.816 495.664 222.064 494.416 222.064C493.552 222.064 492.744 222.248 491.992 222.616C491.256 222.984 490.704 223.456 490.336 224.032L489.856 223.6C490.928 221.52 492.784 220.48 495.424 220.48C496.096 220.48 496.648 220.664 497.08 221.032C497.528 221.384 497.824 221.8 497.968 222.28C498.128 222.76 498.208 223.296 498.208 223.888V230.368C498.208 230.576 498.224 230.736 498.256 230.848C498.288 230.96 498.384 231.072 498.544 231.184C498.72 231.28 498.976 231.328 499.312 231.328H499.744V232ZM496.288 228.736V225.808C495.04 226.048 493.88 226.528 492.808 227.248C491.736 227.968 491.2 228.752 491.2 229.6C491.2 229.936 491.36 230.232 491.68 230.488C492.016 230.728 492.424 230.848 492.904 230.848C493.4 230.848 493.984 230.632 494.656 230.2C495.328 229.752 495.872 229.264 496.288 228.736ZM508.262 230.512L508.454 231.088C507.254 231.92 505.942 232.336 504.518 232.336C504.006 232.336 503.566 232.152 503.198 231.784C502.83 231.416 502.646 230.928 502.646 230.32V221.824H501.254V220.816H501.782C502.31 220.816 502.798 220.496 503.246 219.856C503.71 219.216 503.942 218.624 503.942 218.08H504.566V220.816H507.83V221.824H505.478C504.87 221.824 504.566 222.112 504.566 222.688V229.552C504.566 230.608 504.95 231.136 505.718 231.136C506.582 231.136 507.43 230.928 508.262 230.512ZM518.771 229.072L519.203 229.504C518.179 231.392 516.339 232.336 513.683 232.336C512.451 232.336 511.395 231.792 510.515 230.704C509.651 229.616 509.219 228.4 509.219 227.056C509.219 225.248 509.803 223.704 510.971 222.424C512.155 221.128 513.587 220.48 515.267 220.48C516.067 220.48 516.771 220.712 517.379 221.176C518.467 222.024 519.011 223.12 519.011 224.464C519.011 224.656 518.971 224.888 518.891 225.16C518.827 225.432 518.771 225.568 518.723 225.568L510.995 225.808C510.995 227.056 511.387 228.208 512.171 229.264C512.955 230.32 513.907 230.848 515.027 230.848C515.827 230.848 516.563 230.688 517.235 230.368C517.923 230.032 518.435 229.6 518.771 229.072ZM511.235 224.848L516.851 224.608C516.883 224.608 516.899 224.464 516.899 224.176C516.899 223.344 516.651 222.752 516.155 222.4C515.675 222.048 515.003 221.872 514.139 221.872C513.291 221.872 512.595 222.136 512.051 222.664C511.507 223.192 511.235 223.92 511.235 224.848ZM532.989 232H529.533V229.168C529.165 230.176 528.597 230.96 527.829 231.52C527.061 232.064 526.125 232.336 525.021 232.336C524.445 232.336 523.957 232.208 523.557 231.952C523.157 231.696 522.869 231.368 522.693 230.968C522.389 230.28 522.237 229.6 522.237 228.928V223.216C522.237 222.48 521.773 222.112 520.845 222.112V221.44C521.165 221.44 521.645 221.352 522.285 221.176C522.941 221 523.421 220.816 523.725 220.624L524.157 220.576V228.496C524.157 229.216 524.325 229.768 524.661 230.152C525.013 230.52 525.501 230.704 526.125 230.704C527.021 230.704 527.813 230.224 528.501 229.264C529.189 228.304 529.533 227.584 529.533 227.104V223.216C529.533 222.48 529.069 222.112 528.141 222.112V221.44C528.493 221.44 528.989 221.352 529.629 221.176C530.285 221 530.765 220.816 531.069 220.624L531.501 220.576V230.368C531.501 230.592 531.517 230.76 531.549 230.872C531.629 231.176 531.965 231.328 532.557 231.328H532.989V232ZM540.053 232H534.869V231.328H535.253C535.685 231.328 535.957 231.256 536.069 231.112C536.197 230.968 536.261 230.736 536.261 230.416V223.216C536.261 222.912 536.157 222.696 535.949 222.568C535.757 222.424 535.397 222.352 534.869 222.352V221.68C535.189 221.68 535.669 221.568 536.309 221.344C536.965 221.104 537.461 220.88 537.797 220.672L538.229 220.576V223.552C538.805 222.288 539.461 221.456 540.197 221.056C540.933 220.64 542.021 220.432 543.461 220.432L543.317 223.216H542.597C542.597 222.992 542.509 222.776 542.333 222.568C542.173 222.36 541.909 222.256 541.541 222.256C540.741 222.256 539.989 222.688 539.285 223.552C538.581 224.416 538.229 225.248 538.229 226.048V230.272C538.229 230.528 538.237 230.712 538.253 230.824C538.285 230.936 538.381 231.048 538.541 231.16C538.701 231.272 538.949 231.328 539.285 231.328H540.053V232Z" fill="#30475E"/>
</g>
<defs>
<filter id="filter0_d" x="393.991" y="123.712" width="187.3" height="116.624" filterUnits="userSpaceOnUse" color-interpolation-filters="sRGB">
<feFlood flood-opacity="0" result="BackgroundImageFix"/>
<feColorMatrix in="SourceAlpha" type="matrix" values="0 0 0 0 0 0 0 0 0 0 0 0 0 0 0 0 0 0 127 0"/>
<feOffset dy="4"/>
<feGaussianBlur stdDeviation="2"/>
<feColorMatrix type="matrix" values="0 0 0 0 0 0 0 0 0 0 0 0 0 0 0 0 0 0 0.25 0"/>
<feBlend mode="normal" in2="BackgroundImageFix" result="effect1_dropShadow"/>
<feBlend mode="normal" in="SourceGraphic" in2="effect1_dropShadow" result="shape"/>
</filter>
</defs>
</svg>
